<svg width="651" height="214" viewBox="0 0 651 214" fill="none" xmlns="http://www.w3.org/2000/svg">
<path d="M43.6417 134.886C35.7069 134.886 28.4018 132.997 21.7264 129.218C15.051 125.44 9.76113 119.961 5.85668 112.783C1.95223 105.604 0 97.1026 0 87.279V84.8231C0 74.9995 1.95223 66.5613 5.85668 59.5084C9.76113 52.3296 14.9881 46.8511 21.5375 43.0728C28.2128 39.1685 35.5809 37.2164 43.6417 37.2164C50.0652 37.2164 55.481 38.098 59.8893 39.8612C64.4235 41.4985 68.076 43.6395 70.8469 46.2843C73.6178 48.8032 75.759 51.511 77.2704 54.4077H79.9153V0H94.8404V132.241H80.2932V116.939H77.6482C75.1292 121.599 71.2248 125.755 65.9349 129.407C60.645 133.06 53.2139 134.886 43.6417 134.886ZM47.6091 121.662C57.1814 121.662 64.9273 118.639 70.8469 112.594C76.8925 106.422 79.9153 97.8583 79.9153 86.9012V85.2009C79.9153 74.2438 76.8925 65.7426 70.8469 59.6973C64.9273 53.5261 57.1814 50.4405 47.6091 50.4405C38.1629 50.4405 30.354 53.5261 24.1824 59.6973C18.1368 65.7426 15.114 74.2438 15.114 85.2009V86.9012C15.114 97.8583 18.1368 106.422 24.1824 112.594C30.354 118.639 38.1629 121.662 47.6091 121.662Z" fill="white"/>
<path d="M137.453 134.886C131.03 134.886 125.173 133.752 119.883 131.485C114.593 129.218 110.437 125.944 107.414 121.662C104.391 117.38 102.88 112.153 102.88 105.982C102.88 99.6845 104.391 94.5208 107.414 90.4906C110.437 86.3344 114.593 83.2488 119.883 81.2337C125.173 79.0927 131.093 78.0221 137.642 78.0221H168.815V71.2212C168.815 64.6721 166.863 59.5084 162.958 55.7301C159.18 51.9518 153.512 50.0626 145.955 50.0626C138.524 50.0626 132.73 51.8888 128.574 55.5412C124.418 59.0676 121.584 63.8535 120.072 69.8988L106.092 65.3648C107.603 60.2011 109.996 55.5412 113.271 51.385C116.546 47.103 120.891 43.7025 126.307 41.1836C131.849 38.5388 138.461 37.2164 146.144 37.2164C157.983 37.2164 167.178 40.302 173.727 46.4732C180.276 52.5185 183.551 61.0827 183.551 72.1657V113.916C183.551 117.694 185.314 119.584 188.841 119.584H197.343V132.241H184.307C180.15 132.241 176.813 131.107 174.294 128.84C171.775 126.447 170.515 123.299 170.515 119.395V118.45H168.248C166.863 120.843 164.973 123.362 162.58 126.007C160.313 128.526 157.165 130.604 153.134 132.241C149.104 134.004 143.877 134.886 137.453 134.886ZM139.154 122.039C147.97 122.039 155.086 119.458 160.502 114.294C166.044 109.004 168.815 101.637 168.815 92.1908V90.1127H138.209C132.289 90.1127 127.377 91.4351 123.473 94.08C119.694 96.5988 117.805 100.44 117.805 105.604C117.805 110.767 119.757 114.798 123.662 117.694C127.692 120.591 132.856 122.039 139.154 122.039Z" fill="white"/>
<path d="M209.528 170.024V156.8H262.427C266.08 156.8 267.906 154.911 267.906 151.132V117.505H265.261C264.002 120.15 262.05 122.795 259.405 125.44C256.886 127.959 253.548 130.037 249.392 131.674C245.235 133.185 240.008 133.941 233.711 133.941C227.035 133.941 220.864 132.493 215.196 129.596C209.654 126.699 205.246 122.417 201.971 116.75C198.823 111.082 197.248 104.155 197.248 95.9691V39.8612H212.173V94.8356C212.173 103.904 214.44 110.516 218.975 114.672C223.635 118.828 229.869 120.906 237.678 120.906C246.495 120.906 253.737 118.009 259.405 112.216C265.072 106.422 267.906 97.7953 267.906 86.3344V39.8612H282.831V153.777C282.831 158.815 281.383 162.782 278.486 165.679C275.715 168.576 271.622 170.024 266.206 170.024H209.528Z" fill="white"/>
<path d="M331.065 132.241C325.775 132.241 321.682 130.793 318.785 127.896C316.014 124.999 314.628 121.032 314.628 115.994V52.8964H286.856V39.8612H314.628V6.98988H329.553V39.8612H359.781V52.8964H329.553V113.727C329.553 117.505 331.38 119.395 335.032 119.395H355.625V132.241H331.065Z" fill="white"/>
<path d="M406.329 134.886C397.009 134.886 388.759 132.934 381.58 129.029C374.527 125.125 368.985 119.647 364.955 112.594C361.05 105.415 359.098 96.9767 359.098 87.279V84.8231C359.098 75.2514 361.05 66.8761 364.955 59.6973C368.985 52.5185 374.527 46.977 381.58 43.0728C388.759 39.1685 397.009 37.2164 406.329 37.2164C415.65 37.2164 423.836 39.1685 430.89 43.0728C438.069 46.977 443.611 52.5185 447.515 59.6973C451.545 66.8761 453.561 75.2514 453.561 84.8231V87.279C453.561 96.9767 451.545 105.415 447.515 112.594C443.611 119.647 438.069 125.125 430.89 129.029C423.836 132.934 415.65 134.886 406.329 134.886ZM406.329 121.473C416.153 121.473 423.962 118.387 429.756 112.216C435.676 105.919 438.636 97.4804 438.636 86.9012V85.2009C438.636 74.6217 435.676 66.2464 429.756 60.0752C423.962 53.778 416.153 50.6294 406.329 50.6294C396.631 50.6294 388.822 53.778 382.903 60.0752C376.983 66.2464 374.023 74.6217 374.023 85.2009V86.9012C374.023 97.4804 376.983 105.919 382.903 112.216C388.822 118.387 396.631 121.473 406.329 121.473Z" fill="white"/>
<path d="M463.416 132.241V39.8612H477.963V55.5412H480.608C482.623 51.1332 486.024 47.1659 490.81 43.6395C495.722 39.9871 502.901 38.1609 512.347 38.1609C519.275 38.1609 525.446 39.6093 530.862 42.506C536.404 45.4027 540.812 49.6848 544.087 55.3523C547.362 61.0197 548.999 68.0096 548.999 76.3219V132.241H534.074V77.4554C534.074 68.2615 531.744 61.5865 527.084 57.4303C522.549 53.2742 516.378 51.1961 508.569 51.1961C499.626 51.1961 492.321 54.0928 486.654 59.8862C481.112 65.6796 478.341 74.3068 478.341 85.7677V132.241H463.416Z" fill="white"/>
<path d="M604.596 134.886C595.276 134.886 587.089 132.934 580.036 129.029C572.983 124.999 567.504 119.395 563.599 112.216C559.695 105.037 557.743 96.7248 557.743 87.279V85.012C557.743 75.4403 559.695 67.065 563.599 59.8862C567.504 52.7074 572.92 47.1659 579.847 43.2617C586.774 39.2315 594.709 37.2164 603.651 37.2164C612.342 37.2164 620.025 39.1055 626.7 42.8838C633.376 46.5362 638.602 51.8258 642.381 58.7527C646.16 65.6796 648.049 73.803 648.049 83.1229V89.9238H572.668C573.045 99.8734 576.257 107.682 582.303 113.349C588.348 118.891 595.905 121.662 604.974 121.662C612.909 121.662 619.017 119.835 623.3 116.183C627.582 112.531 630.857 108.186 633.124 103.148L645.971 109.382C644.081 113.286 641.436 117.191 638.036 121.095C634.761 124.999 630.416 128.274 625 130.918C619.71 133.563 612.909 134.886 604.596 134.886ZM572.857 77.6443H632.935C632.431 69.0801 629.471 62.4051 624.055 57.6193C618.765 52.8334 611.964 50.4405 603.651 50.4405C595.213 50.4405 588.285 52.8334 582.87 57.6193C577.454 62.4051 574.116 69.0801 572.857 77.6443Z" fill="white"/>
<path d="M545.336 214C543.51 214 541.967 213.402 540.708 212.205C539.511 211.009 538.913 209.466 538.913 207.577C538.913 205.688 539.511 204.145 540.708 202.948C541.967 201.752 543.51 201.154 545.336 201.154C547.225 201.154 548.768 201.752 549.965 202.948C551.161 204.145 551.76 205.688 551.76 207.577C551.76 209.466 551.161 211.009 549.965 212.205C548.768 213.402 547.225 214 545.336 214Z" fill="white"/>
<path d="M560.752 212.678V173.005H546.583V166.488H560.752V154.681C560.752 152.162 561.445 150.178 562.83 148.73C564.279 147.281 566.325 146.557 568.97 146.557H580.589V152.98H571.048C569.159 152.98 568.215 153.925 568.215 155.814V166.488H582.762V173.005H568.215V212.678H560.752Z" fill="white"/>
<path d="M584.971 212.678V166.488H592.244V172.25H593.567C594.448 170.612 595.897 169.101 597.912 167.716C599.927 166.33 602.761 165.638 606.414 165.638C610.003 165.638 612.9 166.425 615.104 167.999C617.371 169.573 619.009 171.494 620.016 173.761H621.339C622.409 171.494 624.015 169.573 626.156 167.999C628.36 166.425 631.415 165.638 635.319 165.638C638.405 165.638 641.113 166.267 643.443 167.527C645.773 168.786 647.599 170.612 648.922 173.005C650.307 175.335 651 178.138 651 181.412V212.678H643.537V182.073C643.537 178.988 642.624 176.563 640.798 174.8C639.035 172.974 636.547 172.061 633.336 172.061C629.935 172.061 627.132 173.163 624.928 175.367C622.787 177.571 621.717 180.751 621.717 184.907V212.678H614.254V182.073C614.254 178.988 613.341 176.563 611.515 174.8C609.751 172.974 607.264 172.061 604.052 172.061C600.651 172.061 597.849 173.163 595.645 175.367C593.504 177.571 592.433 180.751 592.433 184.907V212.678H584.971Z" fill="white"/>
</svg>
